<svg width="31" height="31" viewBox="0 0 31 31" fill="none" xmlns="http://www.w3.org/2000/svg">
<mask id="mask0_569_6056" style="mask-type:alpha" maskUnits="userSpaceOnUse" x="0" y="0" width="31" height="31">
<rect x="0.195312" y="0.70813" width="30" height="30" fill="#D9D9D9"/>
</mask>
<g mask="url(#mask0_569_6056)">
<path d="M14.2578 21.6456H16.1328V17.8956H19.8828V16.0206H16.1328V12.2706H14.2578V16.0206H10.5078V17.8956H14.2578V21.6456ZM15.196 27.5831C13.7212 27.5831 12.3396 27.3042 11.0511 26.7465C9.76263 26.1888 8.63924 25.4308 7.68091 24.4725C6.72259 23.5142 5.96459 22.391 5.40691 21.103C4.8492 19.815 4.57034 18.4336 4.57034 16.9588C4.57034 15.484 4.8492 14.1023 5.40691 12.8139C5.96459 11.5254 6.72259 10.402 7.68091 9.4437C8.63924 8.48538 9.76241 7.72738 11.0504 7.16969C12.3384 6.61199 13.7198 6.33313 15.1946 6.33313C16.6694 6.33313 18.0511 6.61199 19.3395 7.16969C20.628 7.72738 21.7514 8.48538 22.7097 9.4437C23.668 10.402 24.426 11.5252 24.9837 12.8132C25.5414 14.1012 25.8203 15.4826 25.8203 16.9574C25.8203 18.4322 25.5414 19.8139 24.9837 21.1023C24.426 22.3908 23.668 23.5142 22.7097 24.4725C21.7514 25.4308 20.6282 26.1888 19.3402 26.7465C18.0522 27.3042 16.6708 27.5831 15.196 27.5831ZM7.38762 4.31873L8.70491 5.63601L3.87322 10.4677L2.55594 9.15041L7.38762 4.31873ZM23.003 4.31873L27.8347 9.15041L26.5174 10.4677L21.6857 5.63601L23.003 4.31873Z" fill="#9198A3"/>
</g>
</svg>
