<svg width="21" height="21" viewBox="0 0 21 21" fill="none" xmlns="http://www.w3.org/2000/svg">
<mask id="mask0_2065_9570" style="mask-type:alpha" maskUnits="userSpaceOnUse" x="0" y="0" width="21" height="21">
<rect x="0.0334473" y="0.640625" width="20" height="20" fill="#D9D9D9"/>
</mask>
<g mask="url(#mask0_2065_9570)">
<path d="M16.2835 14.7657L6.90847 5.39071C7.39458 5.1546 7.90152 4.97057 8.4293 4.83862C8.95708 4.70668 9.4918 4.64071 10.0335 4.64071C11.0057 4.64071 11.9154 4.82473 12.7626 5.19279C13.6099 5.56085 14.3494 6.06085 14.9814 6.69279C15.6133 7.32473 16.1133 8.06432 16.4814 8.91154C16.8494 9.75876 17.0335 10.6685 17.0335 11.6407C17.0335 12.1824 16.9744 12.7171 16.8564 13.2449C16.7383 13.7727 16.5474 14.2796 16.2835 14.7657ZM17.5751 7.64071L14.0335 4.09904L15.096 3.03654L18.6376 6.57821L17.5751 7.64071ZM16.7418 19.474L14.3876 17.1199C13.7626 17.606 13.0786 17.981 12.3356 18.2449C11.5925 18.5088 10.8251 18.6407 10.0335 18.6407C9.06125 18.6407 8.15152 18.4567 7.3043 18.0886C6.45708 17.7206 5.7175 17.2206 5.08555 16.5886C4.45361 15.9567 3.95361 15.2171 3.58555 14.3699C3.2175 13.5227 3.03347 12.6129 3.03347 11.6407C3.03347 10.849 3.16541 10.0817 3.4293 9.33862C3.69319 8.59557 4.06819 7.91154 4.5543 7.28654L3.70013 6.43237L2.4918 7.64071L1.4293 6.57821L2.63763 5.36987L1.20013 3.93237L2.26263 2.86987L17.8043 18.4324L16.7418 19.474Z" fill="#F04438"/>
</g>
</svg>
