<svg width="26" height="26" viewBox="0 0 26 26" fill="none" xmlns="http://www.w3.org/2000/svg">
<g clip-path="url(#clip0_385_14241)">
<path d="M3.62653 13.8436L13.9089 3.56126C15.102 2.36818 16.7201 1.69791 18.4074 1.69791C20.0947 1.69791 21.7128 2.36818 22.9059 3.56126C24.099 4.75435 24.7693 6.37252 24.7693 8.05979C24.7693 9.74706 24.099 11.3652 22.9059 12.5583L12.6236 22.8407C11.4305 24.0337 9.81234 24.704 8.12506 24.704C6.43779 24.704 4.81962 24.0337 3.62653 22.8407C2.43345 21.6476 1.76318 20.0294 1.76318 18.3421C1.76318 16.6549 2.43345 15.0367 3.62653 13.8436Z" stroke="#F79009" stroke-width="1.5" stroke-linecap="round" stroke-linejoin="round"/>
<path d="M9.08337 9.01804L17.4492 17.3839" stroke="#F79009" stroke-width="1.5" stroke-linecap="round" stroke-linejoin="round"/>
</g>
<defs>
<clipPath id="clip0_385_14241">
<rect width="25.0976" height="25.0976" fill="white" transform="translate(0.717529 0.652171)"/>
</clipPath>
</defs>
</svg>
