<svg width="16" height="16" viewBox="0 0 16 16" fill="none" xmlns="http://www.w3.org/2000/svg">
<path d="M2.25967 15.264C2.68268 15.264 2.89418 15.264 3.05575 15.1817C3.19787 15.1093 3.31342 14.9937 3.38583 14.8516C3.46815 14.69 3.46815 14.4785 3.46815 14.0555V9.67478C3.46815 9.25178 3.46815 9.04027 3.38583 8.8787C3.31342 8.73658 3.19787 8.62104 3.05575 8.54862C2.89418 8.4663 2.68268 8.4663 2.25967 8.4663H1.65543C1.23242 8.4663 1.02092 8.4663 0.859347 8.54862C0.717228 8.62104 0.601682 8.73658 0.529268 8.8787C0.446945 9.04027 0.446945 9.25178 0.446945 9.67478L0.446945 14.0555C0.446945 14.4785 0.446945 14.69 0.529268 14.8516C0.601681 14.9937 0.717228 15.1093 0.859347 15.1817C1.02092 15.264 1.23242 15.264 1.65543 15.264H2.25967Z" fill="#667085"/>
<path d="M3.46815 11.5251H10.8049C11.1453 11.5251 11.4762 11.4181 11.7482 11.2193L13.6475 9.83363C14.1215 9.48799 14.785 9.53387 15.204 9.94146C15.6693 10.3942 15.6693 11.1275 15.204 11.5794L13.5744 13.1647C13.1357 13.5914 12.576 13.8827 11.9675 14.0012L9.66425 14.4494C9.20752 14.5381 8.73665 14.5274 8.28463 14.4172L6.20145 13.911C5.95225 13.8498 5.69677 13.8192 5.43971 13.8192H3.46815" fill="#667085"/>
<path d="M3.46815 11.5251L10.1383 11.5251C10.7962 11.5251 11.3292 11.0066 11.3292 10.3666V10.1349C11.3292 9.60341 10.9574 9.14 10.4276 9.01153L8.6258 8.57336C8.33259 8.50224 8.03229 8.4663 7.73043 8.4663C7.00171 8.4663 5.68262 9.06965 5.68262 9.06965L3.46815 9.9957" fill="#667085"/>
<path fill-rule="evenodd" clip-rule="evenodd" d="M11.921 1.36061C11.4702 0.417348 10.431 -0.0823689 9.42026 0.399958C8.40955 0.882285 7.97896 2.02613 8.40213 3.03026C8.66366 3.65084 9.41294 4.85596 9.9472 5.68606C10.1446 5.99277 10.2433 6.14613 10.3875 6.23584C10.5111 6.31279 10.6659 6.35427 10.8115 6.34946C10.9812 6.34385 11.1434 6.26039 11.4677 6.09347C12.3454 5.64171 13.5969 4.97269 14.1336 4.56602C15.0022 3.90799 15.2173 2.6985 14.5671 1.77904C13.9168 0.859583 12.783 0.76911 11.921 1.36061Z" fill="#667085"/>
</svg>
