<svg width="21" height="21" viewBox="0 0 21 21" fill="none" xmlns="http://www.w3.org/2000/svg">
<mask id="mask0_2065_9537" style="mask-type:alpha" maskUnits="userSpaceOnUse" x="0" y="0" width="21" height="21">
<rect x="0.0334473" y="0.640625" width="20" height="20" fill="#D9D9D9"/>
</mask>
<g mask="url(#mask0_2065_9537)">
<path d="M8.97095 13.6406L13.9293 8.70312L12.8668 7.64062L8.97095 11.5156L7.20011 9.76562L6.13761 10.8281L8.97095 13.6406ZM10.0334 18.6406C8.93622 18.6406 7.9015 18.4323 6.92928 18.0156C5.95706 17.599 5.10636 17.026 4.3772 16.2969C3.64803 15.5677 3.07511 14.717 2.65845 13.7448C2.24178 12.7726 2.03345 11.7378 2.03345 10.6406C2.03345 9.52951 2.24178 8.49132 2.65845 7.52604C3.07511 6.56076 3.64803 5.71354 4.3772 4.98438C5.10636 4.25521 5.95706 3.68229 6.92928 3.26562C7.9015 2.84896 8.93622 2.64062 10.0334 2.64062C11.1446 2.64062 12.1828 2.84896 13.148 3.26562C14.1133 3.68229 14.9605 4.25521 15.6897 4.98438C16.4189 5.71354 16.9918 6.56076 17.4084 7.52604C17.8251 8.49132 18.0334 9.52951 18.0334 10.6406C18.0334 11.7378 17.8251 12.7726 17.4084 13.7448C16.9918 14.717 16.4189 15.5677 15.6897 16.2969C14.9605 17.026 14.1133 17.599 13.148 18.0156C12.1828 18.4323 11.1446 18.6406 10.0334 18.6406Z" fill="#079455"/>
</g>
</svg>
