<svg width="23" height="17" viewBox="0 0 23 17" fill="none" xmlns="http://www.w3.org/2000/svg">
<path d="M0.613556 16.373V13.6514H3.33517V2.08449C3.33517 1.52315 3.53504 1.04262 3.93478 0.642881C4.33452 0.243143 4.81505 0.0432739 5.37639 0.0432739H21.0257V2.08449H5.37639V13.6514H11.5V16.373H0.613556ZM15.2502 16.373C14.9614 16.373 14.7178 16.2753 14.5193 16.0798C14.3209 15.8844 14.2216 15.6422 14.2216 15.3532V5.15453C14.2216 4.86555 14.3194 4.62183 14.5148 4.42338C14.7102 4.22493 14.9523 4.1257 15.2411 4.1257H21.358C21.6468 4.1257 21.8904 4.22342 22.0888 4.41884C22.2873 4.61427 22.3865 4.85647 22.3865 5.14546V15.3442C22.3865 15.6331 22.2888 15.8769 22.0934 16.0753C21.8979 16.2738 21.6558 16.373 21.367 16.373H15.2502Z" fill="#F38744"/>
</svg>
