<svg width="26" height="26" viewBox="0 0 26 26" fill="none" xmlns="http://www.w3.org/2000/svg">
<path d="M13.2662 14.2467C13.8437 14.2467 14.3119 13.7785 14.3119 13.201C14.3119 12.6234 13.8437 12.1552 13.2662 12.1552C12.6886 12.1552 12.2205 12.6234 12.2205 13.201C12.2205 13.7785 12.6886 14.2467 13.2662 14.2467Z" fill="black"/>
<path d="M20.5863 14.2467C21.1638 14.2467 21.632 13.7785 21.632 13.201C21.632 12.6234 21.1638 12.1552 20.5863 12.1552C20.0088 12.1552 19.5406 12.6234 19.5406 13.201C19.5406 13.7785 20.0088 14.2467 20.5863 14.2467Z" fill="black"/>
<path d="M5.94606 14.2467C6.5236 14.2467 6.99179 13.7785 6.99179 13.201C6.99179 12.6234 6.5236 12.1552 5.94606 12.1552C5.36852 12.1552 4.90033 12.6234 4.90033 13.201C4.90033 13.7785 5.36852 14.2467 5.94606 14.2467Z" fill="black"/>
<path d="M13.2662 14.2467C13.8437 14.2467 14.3119 13.7785 14.3119 13.201C14.3119 12.6234 13.8437 12.1552 13.2662 12.1552C12.6886 12.1552 12.2205 12.6234 12.2205 13.201C12.2205 13.7785 12.6886 14.2467 13.2662 14.2467Z" stroke="black" stroke-width="1.5" stroke-linecap="round" stroke-linejoin="round"/>
<path d="M20.5863 14.2467C21.1638 14.2467 21.632 13.7785 21.632 13.201C21.632 12.6234 21.1638 12.1552 20.5863 12.1552C20.0088 12.1552 19.5406 12.6234 19.5406 13.201C19.5406 13.7785 20.0088 14.2467 20.5863 14.2467Z" stroke="black" stroke-width="1.5" stroke-linecap="round" stroke-linejoin="round"/>
<path d="M5.94606 14.2467C6.5236 14.2467 6.99179 13.7785 6.99179 13.201C6.99179 12.6234 6.5236 12.1552 5.94606 12.1552C5.36852 12.1552 4.90033 12.6234 4.90033 13.201C4.90033 13.7785 5.36852 14.2467 5.94606 14.2467Z" stroke="black" stroke-width="1.5" stroke-linecap="round" stroke-linejoin="round"/>
</svg>
