<svg width="29" height="29" viewBox="0 0 29 29" fill="none" xmlns="http://www.w3.org/2000/svg">
<g clip-path="url(#clip0_2065_8259)">
<path d="M4.70004 21.9598V7.96C4.70004 7.34117 4.94587 6.74769 5.38345 6.31011C5.82103 5.87254 6.41451 5.62671 7.03334 5.62671H21.0331C21.6519 5.62671 22.2454 5.87254 22.683 6.31011C23.1206 6.74769 23.3664 7.34117 23.3664 7.96V21.9598C23.3664 22.5786 23.1206 23.1721 22.683 23.6096C22.2454 24.0472 21.6519 24.2931 21.0331 24.2931H7.03334C6.41451 24.2931 5.82103 24.0472 5.38345 23.6096C4.94587 23.1721 4.70004 22.5786 4.70004 21.9598Z" stroke="#667085" stroke-width="2" stroke-linecap="round" stroke-linejoin="round"/>
<path d="M8.19998 17.2933L11.6999 13.7934L14.0332 16.1266L17.5332 12.6267L19.8664 14.96" stroke="#667085" stroke-width="2" stroke-linecap="round" stroke-linejoin="round"/>
</g>
<defs>
<clipPath id="clip0_2065_8259">
<rect width="27.9995" height="27.9995" fill="white" transform="translate(0.0334473 0.960205)"/>
</clipPath>
</defs>
</svg>
