<svg width="26" height="26" viewBox="0 0 26 26" fill="none" xmlns="http://www.w3.org/2000/svg">
<g clip-path="url(#clip0_385_14262)">
<path d="M8.38616 24.1811H18.1463C18.4699 24.1811 18.7802 24.0526 19.009 23.8238C19.2378 23.595 19.3663 23.2847 19.3663 22.9611V10.7609C19.3663 9.7902 18.9807 8.85925 18.2943 8.17285C17.6079 7.48646 16.677 7.10085 15.7063 7.10085H10.8262C9.85549 7.10085 8.92454 7.48646 8.23814 8.17285C7.55175 8.85925 7.16614 9.7902 7.16614 10.7609V22.9611C7.16614 23.2847 7.29468 23.595 7.52347 23.8238C7.75227 24.0526 8.06259 24.1811 8.38616 24.1811Z" stroke="#7A5AF8" stroke-width="1.5" stroke-linecap="round" stroke-linejoin="round"/>
<path d="M10.8262 15.641H15.7063" stroke="#7A5AF8" stroke-width="1.5" stroke-linecap="round" stroke-linejoin="round"/>
<path d="M13.2662 13.201V18.081" stroke="#7A5AF8" stroke-width="1.5" stroke-linecap="round" stroke-linejoin="round"/>
<path d="M10.8262 7.10085V3.44079C10.8262 3.11722 10.9548 2.80691 11.1836 2.57811C11.4124 2.34931 11.7227 2.22077 12.0463 2.22077H14.4863C14.8099 2.22077 15.1202 2.34931 15.349 2.57811C15.5778 2.80691 15.7063 3.11722 15.7063 3.44079V7.10085" stroke="#7A5AF8" stroke-width="1.5" stroke-linecap="round" stroke-linejoin="round"/>
</g>
<defs>
<clipPath id="clip0_385_14262">
<rect width="25.0976" height="25.0976" fill="white" transform="translate(0.717468 0.652184)"/>
</clipPath>
</defs>
</svg>
