<svg width="70" height="16" viewBox="0 0 70 16" fill="none" xmlns="http://www.w3.org/2000/svg">
<path d="M5.46421 15.5893C3.7194 15.5893 2.46533 15.2077 1.70197 14.4443C0.952253 13.681 0.577393 12.5768 0.577393 11.1319V1.27648H3.46041V11.1319C3.46041 11.8816 3.62399 12.4405 3.95114 12.8086C4.27829 13.163 4.78265 13.3402 5.46421 13.3402H10.0443V15.5893H5.46421Z" fill="#98A2B3"/>
<path d="M10.8807 15.5893V4.43646H13.5091V15.5893H10.8807ZM12.2022 2.85357C11.7859 2.85357 11.4277 2.71561 11.1275 2.43969C10.8274 2.15893 10.6773 1.82251 10.6773 1.43041C10.6773 1.03348 10.8274 0.697054 11.1275 0.421137C11.4277 0.140379 11.7859 0 12.2022 0C12.6233 0 12.9815 0.140379 13.2768 0.421137C13.5769 0.697054 13.727 1.03348 13.727 1.43041C13.727 1.82251 13.5769 2.15893 13.2768 2.43969C12.9815 2.71561 12.6233 2.85357 12.2022 2.85357Z" fill="#98A2B3"/>
<path d="M19.6723 15.8727C18.9324 15.8727 18.342 15.6838 17.9011 15.3059C17.4603 14.9123 17.1061 14.2668 16.8384 13.3694L14.0753 4.48972H16.5786L19.1764 13.1332C19.2709 13.4324 19.3417 13.6292 19.389 13.7237C19.4519 13.8181 19.5464 13.8654 19.6723 13.8654C19.7826 13.8654 19.8691 13.8181 19.9321 13.7237C20.0108 13.6134 20.0896 13.4166 20.1683 13.1332L22.7425 4.48972H25.2222L22.5063 13.3694C22.2386 14.2668 21.8844 14.9123 21.4436 15.3059C21.0185 15.6838 20.4281 15.8727 19.6723 15.8727Z" fill="#98A2B3"/>
<path d="M25.6325 15.5893V4.43646H28.261V15.5893H25.6325ZM26.954 2.85357C26.5377 2.85357 26.1795 2.71561 25.8794 2.43969C25.5792 2.15893 25.4292 1.82251 25.4292 1.43041C25.4292 1.03348 25.5792 0.697054 25.8794 0.421137C26.1795 0.140379 26.5377 0 26.954 0C27.3751 0 27.7333 0.140379 28.0286 0.421137C28.3287 0.697054 28.4788 1.03348 28.4788 1.43041C28.4788 1.82251 28.3287 2.15893 28.0286 2.43969C27.7333 2.71561 27.3751 2.85357 26.954 2.85357Z" fill="#98A2B3"/>
<path d="M30.3903 1.27648H36.279C37.9011 1.27648 39.1075 1.64453 39.8981 2.38062C40.6887 3.10307 41.084 4.20721 41.084 5.69302C41.084 7.19246 40.6887 8.31023 39.8981 9.04632C39.1075 9.76877 37.9011 10.13 36.279 10.13H32.803V15.5893H30.3903V1.27648ZM36.2995 8.22844C37.0083 8.22844 37.5808 8.01715 38.017 7.59458C38.4532 7.15838 38.6713 6.52453 38.6713 5.69302C38.6713 4.86151 38.4532 4.23447 38.017 3.8119C37.5808 3.38933 37.0083 3.17804 36.2995 3.17804H32.803V8.22844H36.2995Z" fill="#98A2B3"/>
<path d="M46.7431 15.8072C45.6539 15.8072 44.71 15.5676 43.9113 15.0883C43.1126 14.6091 42.493 13.9387 42.0525 13.077C41.6168 12.2154 41.399 11.2085 41.399 10.0565C41.399 8.90439 41.6168 7.89511 42.0525 7.02863C42.493 6.16216 43.1126 5.4893 43.9113 5.01008C44.71 4.53086 45.6539 4.29124 46.7431 4.29124C47.8322 4.29124 48.7761 4.53086 49.5748 5.01008C50.3736 5.4893 50.9907 6.16216 51.4264 7.02863C51.8669 7.89511 52.0872 8.90439 52.0872 10.0565C52.0872 11.2085 51.8669 12.2154 51.4264 13.077C50.9907 13.9387 50.3736 14.6091 49.5748 15.0883C48.7761 15.5676 47.8322 15.8072 46.7431 15.8072ZM46.7576 13.7015C47.3481 13.7015 47.8419 13.5393 48.2388 13.215C48.6358 12.8858 48.931 12.4453 49.1247 11.8935C49.3231 11.3417 49.4224 10.7269 49.4224 10.0492C49.4224 9.36667 49.3231 8.74949 49.1247 8.19765C48.931 7.64098 48.6358 7.19806 48.2388 6.86889C47.8419 6.53973 47.3481 6.37514 46.7576 6.37514C46.1525 6.37514 45.6491 6.53973 45.2473 6.86889C44.8504 7.19806 44.5527 7.64098 44.3542 8.19765C44.1606 8.74949 44.0638 9.36667 44.0638 10.0492C44.0638 10.7269 44.1606 11.3417 44.3542 11.8935C44.5527 12.4453 44.8504 12.8858 45.2473 13.215C45.6491 13.5393 46.1525 13.7015 46.7576 13.7015Z" fill="#98A2B3"/>
<path d="M57.4345 15.7854C56.5583 15.7854 55.7742 15.5603 55.0819 15.1101C54.3897 14.6599 53.8427 14.0064 53.441 13.1496C53.0392 12.2928 52.8383 11.2521 52.8383 10.0274C52.8383 8.78821 53.0416 7.74263 53.4482 6.89067C53.8597 6.03388 54.4139 5.38765 55.111 4.95199C55.808 4.51149 56.585 4.29124 57.4418 4.29124C58.0952 4.29124 58.6326 4.40258 59.0537 4.62525C59.4748 4.84308 59.8088 5.10689 60.0557 5.41669C60.3026 5.72166 60.4938 6.00968 60.6293 6.28075H60.7383V0.718837H63.374V15.5893H60.7891V13.8322H60.6293C60.4938 14.1033 60.2978 14.3913 60.0412 14.6962C59.7846 14.9964 59.4458 15.2529 59.0247 15.4659C58.6035 15.6789 58.0735 15.7854 57.4345 15.7854ZM58.1679 13.6289C58.7245 13.6289 59.1989 13.4788 59.591 13.1787C59.9831 12.8737 60.2808 12.4502 60.4841 11.908C60.6874 11.3659 60.7891 10.7342 60.7891 10.0129C60.7891 9.29164 60.6874 8.66477 60.4841 8.1323C60.2857 7.59983 59.9904 7.18595 59.5983 6.89067C59.211 6.59539 58.7342 6.44775 58.1679 6.44775C57.5821 6.44775 57.0932 6.60023 56.7011 6.9052C56.3091 7.21016 56.0138 7.63129 55.8153 8.16861C55.6168 8.70592 55.5176 9.32068 55.5176 10.0129C55.5176 10.71 55.6168 11.332 55.8153 11.879C56.0186 12.4211 56.3163 12.8495 56.7084 13.1642C57.1053 13.474 57.5918 13.6289 58.1679 13.6289Z" fill="#98A2B3"/>
<path d="M65.9821 4.15389V1.81802H67.1373C67.2682 1.81802 67.3927 1.84756 67.5108 1.90664C67.6311 1.96361 67.7282 2.04907 67.802 2.16302C67.878 2.27696 67.916 2.41728 67.916 2.58398C67.916 2.75068 67.8769 2.89311 67.7989 3.01128C67.7208 3.12733 67.6195 3.21595 67.495 3.27715C67.3726 3.33834 67.2439 3.36894 67.1089 3.36894H66.3017V2.94797H66.9696C67.0519 2.94797 67.1278 2.91738 67.1975 2.85618C67.2671 2.79499 67.3019 2.70426 67.3019 2.58398C67.3019 2.45738 67.2671 2.36875 67.1975 2.31811C67.1278 2.26747 67.0551 2.24215 66.9791 2.24215H66.5581V4.15389H65.9821ZM67.4475 3.06825L67.9983 4.15389H67.3652L66.843 3.06825H67.4475ZM66.8905 5.54655C66.5402 5.54655 66.2121 5.48114 65.9061 5.35032C65.6001 5.21949 65.3311 5.03802 65.099 4.80591C64.8669 4.5738 64.6854 4.30476 64.5546 3.9988C64.4238 3.69284 64.3583 3.36472 64.3583 3.01444C64.3583 2.66417 64.4238 2.33605 64.5546 2.03008C64.6854 1.72412 64.8669 1.45508 65.099 1.22297C65.3311 0.990861 65.6001 0.809393 65.9061 0.678567C66.2121 0.547741 66.5402 0.482328 66.8905 0.482328C67.2407 0.482328 67.5689 0.547741 67.8748 0.678567C68.1808 0.809393 68.4498 0.990861 68.6819 1.22297C68.914 1.45508 69.0955 1.72412 69.2263 2.03008C69.3572 2.33605 69.4226 2.66417 69.4226 3.01444C69.4226 3.36472 69.3572 3.69284 69.2263 3.9988C69.0955 4.30476 68.914 4.5738 68.6819 4.80591C68.4498 5.03802 68.1808 5.21949 67.8748 5.35032C67.5689 5.48114 67.2407 5.54655 66.8905 5.54655ZM66.8905 4.8977C67.2365 4.8977 67.552 4.8133 67.8368 4.64449C68.1217 4.47568 68.3485 4.24885 68.5173 3.96398C68.6883 3.67701 68.7737 3.3605 68.7737 3.01444C68.7737 2.66839 68.6883 2.35293 68.5173 2.06806C68.3485 1.78109 68.1217 1.5532 67.8368 1.38439C67.552 1.21559 67.2365 1.13118 66.8905 1.13118C66.5423 1.13118 66.2258 1.21559 65.9409 1.38439C65.6561 1.5532 65.4282 1.78109 65.2572 2.06806C65.0884 2.35293 65.004 2.66839 65.004 3.01444C65.004 3.3605 65.0884 3.67596 65.2572 3.96082C65.4282 4.24568 65.6561 4.47357 65.9409 4.64449C66.2258 4.8133 66.5423 4.8977 66.8905 4.8977Z" fill="#98A2B3"/>
</svg>
