<svg width="80" height="26" viewBox="0 0 80 26" fill="none" xmlns="http://www.w3.org/2000/svg">
<g filter="url(#filter0_d_18_11806)">
<mask id="path-1-outside-1_18_11806" maskUnits="userSpaceOnUse" x="4.57739" y="0" width="71" height="18" fill="black">
<rect fill="white" x="4.57739" width="71" height="18"/>
<path d="M10.4642 16.5893C8.7194 16.5893 7.46533 16.2077 6.70197 15.4443C5.95225 14.681 5.57739 13.5768 5.57739 12.1319V2.27648H8.46041V12.1319C8.46041 12.8816 8.62399 13.4405 8.95114 13.8086C9.27829 14.163 9.78265 14.3402 10.4642 14.3402H15.0443V16.5893H10.4642Z"/>
<path d="M15.8807 16.5893V5.43646H18.5091V16.5893H15.8807ZM17.2022 3.85357C16.7859 3.85357 16.4277 3.71561 16.1275 3.43969C15.8274 3.15893 15.6773 2.82251 15.6773 2.43041C15.6773 2.03348 15.8274 1.69705 16.1275 1.42114C16.4277 1.14038 16.7859 1 17.2022 1C17.6233 1 17.9815 1.14038 18.2768 1.42114C18.5769 1.69705 18.727 2.03348 18.727 2.43041C18.727 2.82251 18.5769 3.15893 18.2768 3.43969C17.9815 3.71561 17.6233 3.85357 17.2022 3.85357Z"/>
<path d="M24.6723 16.8727C23.9324 16.8727 23.342 16.6838 22.9011 16.3059C22.4603 15.9123 22.1061 15.2668 21.8384 14.3694L19.0753 5.48972H21.5786L24.1764 14.1332C24.2709 14.4324 24.3417 14.6292 24.389 14.7237C24.4519 14.8181 24.5464 14.8654 24.6723 14.8654C24.7826 14.8654 24.8691 14.8181 24.9321 14.7237C25.0108 14.6134 25.0896 14.4166 25.1683 14.1332L27.7425 5.48972H30.2222L27.5063 14.3694C27.2386 15.2668 26.8844 15.9123 26.4436 16.3059C26.0185 16.6838 25.4281 16.8727 24.6723 16.8727Z"/>
<path d="M30.6325 16.5893V5.43646H33.261V16.5893H30.6325ZM31.954 3.85357C31.5377 3.85357 31.1795 3.71561 30.8794 3.43969C30.5792 3.15893 30.4292 2.82251 30.4292 2.43041C30.4292 2.03348 30.5792 1.69705 30.8794 1.42114C31.1795 1.14038 31.5377 1 31.954 1C32.3751 1 32.7333 1.14038 33.0286 1.42114C33.3287 1.69705 33.4788 2.03348 33.4788 2.43041C33.4788 2.82251 33.3287 3.15893 33.0286 3.43969C32.7333 3.71561 32.3751 3.85357 31.954 3.85357Z"/>
<path d="M35.3903 2.27648H41.279C42.9011 2.27648 44.1075 2.64453 44.8981 3.38062C45.6887 4.10307 46.084 5.20721 46.084 6.69302C46.084 8.19246 45.6887 9.31023 44.8981 10.0463C44.1075 10.7688 42.9011 11.13 41.279 11.13H37.803V16.5893H35.3903V2.27648ZM41.2995 9.22844C42.0083 9.22844 42.5808 9.01715 43.017 8.59458C43.4532 8.15838 43.6713 7.52453 43.6713 6.69302C43.6713 5.86151 43.4532 5.23447 43.017 4.8119C42.5808 4.38933 42.0083 4.17804 41.2995 4.17804H37.803V9.22844H41.2995Z"/>
<path d="M51.7431 16.8072C50.6539 16.8072 49.71 16.5676 48.9113 16.0883C48.1126 15.6091 47.493 14.9387 47.0525 14.077C46.6168 13.2154 46.399 12.2085 46.399 11.0565C46.399 9.90439 46.6168 8.89511 47.0525 8.02863C47.493 7.16216 48.1126 6.4893 48.9113 6.01008C49.71 5.53085 50.6539 5.29124 51.7431 5.29124C52.8322 5.29124 53.7761 5.53085 54.5748 6.01008C55.3736 6.4893 55.9907 7.16216 56.4264 8.02863C56.8669 8.89511 57.0872 9.90439 57.0872 11.0565C57.0872 12.2085 56.8669 13.2154 56.4264 14.077C55.9907 14.9387 55.3736 15.6091 54.5748 16.0883C53.7761 16.5676 52.8322 16.8072 51.7431 16.8072ZM51.7576 14.7015C52.3481 14.7015 52.8419 14.5393 53.2388 14.215C53.6358 13.8858 53.931 13.4453 54.1247 12.8935C54.3231 12.3417 54.4224 11.7269 54.4224 11.0492C54.4224 10.3667 54.3231 9.74949 54.1247 9.19765C53.931 8.64098 53.6358 8.19806 53.2388 7.86889C52.8419 7.53973 52.3481 7.37514 51.7576 7.37514C51.1525 7.37514 50.6491 7.53973 50.2473 7.86889C49.8504 8.19806 49.5527 8.64098 49.3542 9.19765C49.1606 9.74949 49.0638 10.3667 49.0638 11.0492C49.0638 11.7269 49.1606 12.3417 49.3542 12.8935C49.5527 13.4453 49.8504 13.8858 50.2473 14.215C50.6491 14.5393 51.1525 14.7015 51.7576 14.7015Z"/>
<path d="M62.4345 16.7854C61.5583 16.7854 60.7742 16.5603 60.0819 16.1101C59.3897 15.6599 58.8427 15.0064 58.441 14.1496C58.0392 13.2928 57.8383 12.2521 57.8383 11.0274C57.8383 9.78821 58.0416 8.74263 58.4482 7.89067C58.8597 7.03388 59.4139 6.38765 60.111 5.95199C60.808 5.51149 61.585 5.29124 62.4418 5.29124C63.0953 5.29124 63.6326 5.40258 64.0537 5.62525C64.4748 5.84308 64.8088 6.10689 65.0557 6.41669C65.3026 6.72166 65.4938 7.00968 65.6293 7.28075H65.7383V1.71884H68.374V16.5893H65.7891V14.8322H65.6293C65.4938 15.1033 65.2978 15.3913 65.0412 15.6962C64.7846 15.9964 64.4458 16.2529 64.0247 16.4659C63.6035 16.6789 63.0735 16.7854 62.4345 16.7854ZM63.1679 14.6289C63.7245 14.6289 64.1989 14.4788 64.591 14.1787C64.9831 13.8737 65.2808 13.4502 65.4841 12.908C65.6874 12.3659 65.7891 11.7342 65.7891 11.0129C65.7891 10.2916 65.6874 9.66477 65.4841 9.1323C65.2857 8.59983 64.9904 8.18595 64.5983 7.89067C64.211 7.59539 63.7342 7.44775 63.1679 7.44775C62.5821 7.44775 62.0932 7.60024 61.7011 7.9052C61.3091 8.21016 61.0138 8.63129 60.8153 9.16861C60.6168 9.70592 60.5176 10.3207 60.5176 11.0129C60.5176 11.71 60.6168 12.332 60.8153 12.879C61.0186 13.4211 61.3163 13.8495 61.7084 14.1642C62.1053 14.474 62.5918 14.6289 63.1679 14.6289Z"/>
<path d="M70.9821 5.15389V2.81802H72.1373C72.2682 2.81802 72.3927 2.84756 72.5108 2.90664C72.6311 2.96361 72.7282 3.04907 72.802 3.16302C72.878 3.27696 72.916 3.41728 72.916 3.58398C72.916 3.75068 72.8769 3.89311 72.7989 4.01128C72.7208 4.12733 72.6195 4.21595 72.495 4.27715C72.3726 4.33834 72.2439 4.36894 72.1089 4.36894H71.3017V3.94797H71.9696C72.0519 3.94797 72.1278 3.91738 72.1975 3.85618C72.2671 3.79499 72.3019 3.70426 72.3019 3.58398C72.3019 3.45738 72.2671 3.36875 72.1975 3.31811C72.1278 3.26747 72.0551 3.24215 71.9791 3.24215H71.5581V5.15389H70.9821ZM72.4475 4.06825L72.9983 5.15389H72.3652L71.843 4.06825H72.4475ZM71.8905 6.54655C71.5402 6.54655 71.2121 6.48114 70.9061 6.35032C70.6001 6.21949 70.3311 6.03802 70.099 5.80591C69.8669 5.5738 69.6854 5.30476 69.5546 4.9988C69.4238 4.69284 69.3583 4.36472 69.3583 4.01444C69.3583 3.66417 69.4238 3.33605 69.5546 3.03008C69.6854 2.72412 69.8669 2.45508 70.099 2.22297C70.3311 1.99086 70.6001 1.80939 70.9061 1.67857C71.2121 1.54774 71.5402 1.48233 71.8905 1.48233C72.2407 1.48233 72.5689 1.54774 72.8748 1.67857C73.1808 1.80939 73.4498 1.99086 73.6819 2.22297C73.914 2.45508 74.0955 2.72412 74.2263 3.03008C74.3572 3.33605 74.4226 3.66417 74.4226 4.01444C74.4226 4.36472 74.3572 4.69284 74.2263 4.9988C74.0955 5.30476 73.914 5.5738 73.6819 5.80591C73.4498 6.03802 73.1808 6.21949 72.8748 6.35032C72.5689 6.48114 72.2407 6.54655 71.8905 6.54655ZM71.8905 5.8977C72.2365 5.8977 72.552 5.8133 72.8368 5.64449C73.1217 5.47568 73.3485 5.24885 73.5173 4.96398C73.6883 4.67701 73.7737 4.3605 73.7737 4.01444C73.7737 3.66839 73.6883 3.35293 73.5173 3.06806C73.3485 2.78109 73.1217 2.5532 72.8368 2.38439C72.552 2.21559 72.2365 2.13118 71.8905 2.13118C71.5423 2.13118 71.2258 2.21559 70.9409 2.38439C70.6561 2.5532 70.4282 2.78109 70.2572 3.06806C70.0884 3.35293 70.004 3.66839 70.004 4.01444C70.004 4.3605 70.0884 4.67596 70.2572 4.96082C70.4282 5.24568 70.6561 5.47357 70.9409 5.64449C71.2258 5.8133 71.5423 5.8977 71.8905 5.8977Z"/>
</mask>
<path d="M10.4642 16.5893C8.7194 16.5893 7.46533 16.2077 6.70197 15.4443C5.95225 14.681 5.57739 13.5768 5.57739 12.1319V2.27648H8.46041V12.1319C8.46041 12.8816 8.62399 13.4405 8.95114 13.8086C9.27829 14.163 9.78265 14.3402 10.4642 14.3402H15.0443V16.5893H10.4642Z" fill="white"/>
<path d="M15.8807 16.5893V5.43646H18.5091V16.5893H15.8807ZM17.2022 3.85357C16.7859 3.85357 16.4277 3.71561 16.1275 3.43969C15.8274 3.15893 15.6773 2.82251 15.6773 2.43041C15.6773 2.03348 15.8274 1.69705 16.1275 1.42114C16.4277 1.14038 16.7859 1 17.2022 1C17.6233 1 17.9815 1.14038 18.2768 1.42114C18.5769 1.69705 18.727 2.03348 18.727 2.43041C18.727 2.82251 18.5769 3.15893 18.2768 3.43969C17.9815 3.71561 17.6233 3.85357 17.2022 3.85357Z" fill="white"/>
<path d="M24.6723 16.8727C23.9324 16.8727 23.342 16.6838 22.9011 16.3059C22.4603 15.9123 22.1061 15.2668 21.8384 14.3694L19.0753 5.48972H21.5786L24.1764 14.1332C24.2709 14.4324 24.3417 14.6292 24.389 14.7237C24.4519 14.8181 24.5464 14.8654 24.6723 14.8654C24.7826 14.8654 24.8691 14.8181 24.9321 14.7237C25.0108 14.6134 25.0896 14.4166 25.1683 14.1332L27.7425 5.48972H30.2222L27.5063 14.3694C27.2386 15.2668 26.8844 15.9123 26.4436 16.3059C26.0185 16.6838 25.4281 16.8727 24.6723 16.8727Z" fill="white"/>
<path d="M30.6325 16.5893V5.43646H33.261V16.5893H30.6325ZM31.954 3.85357C31.5377 3.85357 31.1795 3.71561 30.8794 3.43969C30.5792 3.15893 30.4292 2.82251 30.4292 2.43041C30.4292 2.03348 30.5792 1.69705 30.8794 1.42114C31.1795 1.14038 31.5377 1 31.954 1C32.3751 1 32.7333 1.14038 33.0286 1.42114C33.3287 1.69705 33.4788 2.03348 33.4788 2.43041C33.4788 2.82251 33.3287 3.15893 33.0286 3.43969C32.7333 3.71561 32.3751 3.85357 31.954 3.85357Z" fill="white"/>
<path d="M35.3903 2.27648H41.279C42.9011 2.27648 44.1075 2.64453 44.8981 3.38062C45.6887 4.10307 46.084 5.20721 46.084 6.69302C46.084 8.19246 45.6887 9.31023 44.8981 10.0463C44.1075 10.7688 42.9011 11.13 41.279 11.13H37.803V16.5893H35.3903V2.27648ZM41.2995 9.22844C42.0083 9.22844 42.5808 9.01715 43.017 8.59458C43.4532 8.15838 43.6713 7.52453 43.6713 6.69302C43.6713 5.86151 43.4532 5.23447 43.017 4.8119C42.5808 4.38933 42.0083 4.17804 41.2995 4.17804H37.803V9.22844H41.2995Z" fill="white"/>
<path d="M51.7431 16.8072C50.6539 16.8072 49.71 16.5676 48.9113 16.0883C48.1126 15.6091 47.493 14.9387 47.0525 14.077C46.6168 13.2154 46.399 12.2085 46.399 11.0565C46.399 9.90439 46.6168 8.89511 47.0525 8.02863C47.493 7.16216 48.1126 6.4893 48.9113 6.01008C49.71 5.53085 50.6539 5.29124 51.7431 5.29124C52.8322 5.29124 53.7761 5.53085 54.5748 6.01008C55.3736 6.4893 55.9907 7.16216 56.4264 8.02863C56.8669 8.89511 57.0872 9.90439 57.0872 11.0565C57.0872 12.2085 56.8669 13.2154 56.4264 14.077C55.9907 14.9387 55.3736 15.6091 54.5748 16.0883C53.7761 16.5676 52.8322 16.8072 51.7431 16.8072ZM51.7576 14.7015C52.3481 14.7015 52.8419 14.5393 53.2388 14.215C53.6358 13.8858 53.931 13.4453 54.1247 12.8935C54.3231 12.3417 54.4224 11.7269 54.4224 11.0492C54.4224 10.3667 54.3231 9.74949 54.1247 9.19765C53.931 8.64098 53.6358 8.19806 53.2388 7.86889C52.8419 7.53973 52.3481 7.37514 51.7576 7.37514C51.1525 7.37514 50.6491 7.53973 50.2473 7.86889C49.8504 8.19806 49.5527 8.64098 49.3542 9.19765C49.1606 9.74949 49.0638 10.3667 49.0638 11.0492C49.0638 11.7269 49.1606 12.3417 49.3542 12.8935C49.5527 13.4453 49.8504 13.8858 50.2473 14.215C50.6491 14.5393 51.1525 14.7015 51.7576 14.7015Z" fill="white"/>
<path d="M62.4345 16.7854C61.5583 16.7854 60.7742 16.5603 60.0819 16.1101C59.3897 15.6599 58.8427 15.0064 58.441 14.1496C58.0392 13.2928 57.8383 12.2521 57.8383 11.0274C57.8383 9.78821 58.0416 8.74263 58.4482 7.89067C58.8597 7.03388 59.4139 6.38765 60.111 5.95199C60.808 5.51149 61.585 5.29124 62.4418 5.29124C63.0953 5.29124 63.6326 5.40258 64.0537 5.62525C64.4748 5.84308 64.8088 6.10689 65.0557 6.41669C65.3026 6.72166 65.4938 7.00968 65.6293 7.28075H65.7383V1.71884H68.374V16.5893H65.7891V14.8322H65.6293C65.4938 15.1033 65.2978 15.3913 65.0412 15.6962C64.7846 15.9964 64.4458 16.2529 64.0247 16.4659C63.6035 16.6789 63.0735 16.7854 62.4345 16.7854ZM63.1679 14.6289C63.7245 14.6289 64.1989 14.4788 64.591 14.1787C64.9831 13.8737 65.2808 13.4502 65.4841 12.908C65.6874 12.3659 65.7891 11.7342 65.7891 11.0129C65.7891 10.2916 65.6874 9.66477 65.4841 9.1323C65.2857 8.59983 64.9904 8.18595 64.5983 7.89067C64.211 7.59539 63.7342 7.44775 63.1679 7.44775C62.5821 7.44775 62.0932 7.60024 61.7011 7.9052C61.3091 8.21016 61.0138 8.63129 60.8153 9.16861C60.6168 9.70592 60.5176 10.3207 60.5176 11.0129C60.5176 11.71 60.6168 12.332 60.8153 12.879C61.0186 13.4211 61.3163 13.8495 61.7084 14.1642C62.1053 14.474 62.5918 14.6289 63.1679 14.6289Z" fill="white"/>
<path d="M70.9821 5.15389V2.81802H72.1373C72.2682 2.81802 72.3927 2.84756 72.5108 2.90664C72.6311 2.96361 72.7282 3.04907 72.802 3.16302C72.878 3.27696 72.916 3.41728 72.916 3.58398C72.916 3.75068 72.8769 3.89311 72.7989 4.01128C72.7208 4.12733 72.6195 4.21595 72.495 4.27715C72.3726 4.33834 72.2439 4.36894 72.1089 4.36894H71.3017V3.94797H71.9696C72.0519 3.94797 72.1278 3.91738 72.1975 3.85618C72.2671 3.79499 72.3019 3.70426 72.3019 3.58398C72.3019 3.45738 72.2671 3.36875 72.1975 3.31811C72.1278 3.26747 72.0551 3.24215 71.9791 3.24215H71.5581V5.15389H70.9821ZM72.4475 4.06825L72.9983 5.15389H72.3652L71.843 4.06825H72.4475ZM71.8905 6.54655C71.5402 6.54655 71.2121 6.48114 70.9061 6.35032C70.6001 6.21949 70.3311 6.03802 70.099 5.80591C69.8669 5.5738 69.6854 5.30476 69.5546 4.9988C69.4238 4.69284 69.3583 4.36472 69.3583 4.01444C69.3583 3.66417 69.4238 3.33605 69.5546 3.03008C69.6854 2.72412 69.8669 2.45508 70.099 2.22297C70.3311 1.99086 70.6001 1.80939 70.9061 1.67857C71.2121 1.54774 71.5402 1.48233 71.8905 1.48233C72.2407 1.48233 72.5689 1.54774 72.8748 1.67857C73.1808 1.80939 73.4498 1.99086 73.6819 2.22297C73.914 2.45508 74.0955 2.72412 74.2263 3.03008C74.3572 3.33605 74.4226 3.66417 74.4226 4.01444C74.4226 4.36472 74.3572 4.69284 74.2263 4.9988C74.0955 5.30476 73.914 5.5738 73.6819 5.80591C73.4498 6.03802 73.1808 6.21949 72.8748 6.35032C72.5689 6.48114 72.2407 6.54655 71.8905 6.54655ZM71.8905 5.8977C72.2365 5.8977 72.552 5.8133 72.8368 5.64449C73.1217 5.47568 73.3485 5.24885 73.5173 4.96398C73.6883 4.67701 73.7737 4.3605 73.7737 4.01444C73.7737 3.66839 73.6883 3.35293 73.5173 3.06806C73.3485 2.78109 73.1217 2.5532 72.8368 2.38439C72.552 2.21559 72.2365 2.13118 71.8905 2.13118C71.5423 2.13118 71.2258 2.21559 70.9409 2.38439C70.6561 2.5532 70.4282 2.78109 70.2572 3.06806C70.0884 3.35293 70.004 3.66839 70.004 4.01444C70.004 4.3605 70.0884 4.67596 70.2572 4.96082C70.4282 5.24568 70.6561 5.47357 70.9409 5.64449C71.2258 5.8133 71.5423 5.8977 71.8905 5.8977Z" fill="white"/>
<path d="M10.4642 16.5893C8.7194 16.5893 7.46533 16.2077 6.70197 15.4443C5.95225 14.681 5.57739 13.5768 5.57739 12.1319V2.27648H8.46041V12.1319C8.46041 12.8816 8.62399 13.4405 8.95114 13.8086C9.27829 14.163 9.78265 14.3402 10.4642 14.3402H15.0443V16.5893H10.4642Z" stroke="black" stroke-width="2" mask="url(#path-1-outside-1_18_11806)"/>
<path d="M15.8807 16.5893V5.43646H18.5091V16.5893H15.8807ZM17.2022 3.85357C16.7859 3.85357 16.4277 3.71561 16.1275 3.43969C15.8274 3.15893 15.6773 2.82251 15.6773 2.43041C15.6773 2.03348 15.8274 1.69705 16.1275 1.42114C16.4277 1.14038 16.7859 1 17.2022 1C17.6233 1 17.9815 1.14038 18.2768 1.42114C18.5769 1.69705 18.727 2.03348 18.727 2.43041C18.727 2.82251 18.5769 3.15893 18.2768 3.43969C17.9815 3.71561 17.6233 3.85357 17.2022 3.85357Z" stroke="black" stroke-width="2" mask="url(#path-1-outside-1_18_11806)"/>
<path d="M24.6723 16.8727C23.9324 16.8727 23.342 16.6838 22.9011 16.3059C22.4603 15.9123 22.1061 15.2668 21.8384 14.3694L19.0753 5.48972H21.5786L24.1764 14.1332C24.2709 14.4324 24.3417 14.6292 24.389 14.7237C24.4519 14.8181 24.5464 14.8654 24.6723 14.8654C24.7826 14.8654 24.8691 14.8181 24.9321 14.7237C25.0108 14.6134 25.0896 14.4166 25.1683 14.1332L27.7425 5.48972H30.2222L27.5063 14.3694C27.2386 15.2668 26.8844 15.9123 26.4436 16.3059C26.0185 16.6838 25.4281 16.8727 24.6723 16.8727Z" stroke="black" stroke-width="2" mask="url(#path-1-outside-1_18_11806)"/>
<path d="M30.6325 16.5893V5.43646H33.261V16.5893H30.6325ZM31.954 3.85357C31.5377 3.85357 31.1795 3.71561 30.8794 3.43969C30.5792 3.15893 30.4292 2.82251 30.4292 2.43041C30.4292 2.03348 30.5792 1.69705 30.8794 1.42114C31.1795 1.14038 31.5377 1 31.954 1C32.3751 1 32.7333 1.14038 33.0286 1.42114C33.3287 1.69705 33.4788 2.03348 33.4788 2.43041C33.4788 2.82251 33.3287 3.15893 33.0286 3.43969C32.7333 3.71561 32.3751 3.85357 31.954 3.85357Z" stroke="black" stroke-width="2" mask="url(#path-1-outside-1_18_11806)"/>
<path d="M35.3903 2.27648H41.279C42.9011 2.27648 44.1075 2.64453 44.8981 3.38062C45.6887 4.10307 46.084 5.20721 46.084 6.69302C46.084 8.19246 45.6887 9.31023 44.8981 10.0463C44.1075 10.7688 42.9011 11.13 41.279 11.13H37.803V16.5893H35.3903V2.27648ZM41.2995 9.22844C42.0083 9.22844 42.5808 9.01715 43.017 8.59458C43.4532 8.15838 43.6713 7.52453 43.6713 6.69302C43.6713 5.86151 43.4532 5.23447 43.017 4.8119C42.5808 4.38933 42.0083 4.17804 41.2995 4.17804H37.803V9.22844H41.2995Z" stroke="black" stroke-width="2" mask="url(#path-1-outside-1_18_11806)"/>
<path d="M51.7431 16.8072C50.6539 16.8072 49.71 16.5676 48.9113 16.0883C48.1126 15.6091 47.493 14.9387 47.0525 14.077C46.6168 13.2154 46.399 12.2085 46.399 11.0565C46.399 9.90439 46.6168 8.89511 47.0525 8.02863C47.493 7.16216 48.1126 6.4893 48.9113 6.01008C49.71 5.53085 50.6539 5.29124 51.7431 5.29124C52.8322 5.29124 53.7761 5.53085 54.5748 6.01008C55.3736 6.4893 55.9907 7.16216 56.4264 8.02863C56.8669 8.89511 57.0872 9.90439 57.0872 11.0565C57.0872 12.2085 56.8669 13.2154 56.4264 14.077C55.9907 14.9387 55.3736 15.6091 54.5748 16.0883C53.7761 16.5676 52.8322 16.8072 51.7431 16.8072ZM51.7576 14.7015C52.3481 14.7015 52.8419 14.5393 53.2388 14.215C53.6358 13.8858 53.931 13.4453 54.1247 12.8935C54.3231 12.3417 54.4224 11.7269 54.4224 11.0492C54.4224 10.3667 54.3231 9.74949 54.1247 9.19765C53.931 8.64098 53.6358 8.19806 53.2388 7.86889C52.8419 7.53973 52.3481 7.37514 51.7576 7.37514C51.1525 7.37514 50.6491 7.53973 50.2473 7.86889C49.8504 8.19806 49.5527 8.64098 49.3542 9.19765C49.1606 9.74949 49.0638 10.3667 49.0638 11.0492C49.0638 11.7269 49.1606 12.3417 49.3542 12.8935C49.5527 13.4453 49.8504 13.8858 50.2473 14.215C50.6491 14.5393 51.1525 14.7015 51.7576 14.7015Z" stroke="black" stroke-width="2" mask="url(#path-1-outside-1_18_11806)"/>
<path d="M62.4345 16.7854C61.5583 16.7854 60.7742 16.5603 60.0819 16.1101C59.3897 15.6599 58.8427 15.0064 58.441 14.1496C58.0392 13.2928 57.8383 12.2521 57.8383 11.0274C57.8383 9.78821 58.0416 8.74263 58.4482 7.89067C58.8597 7.03388 59.4139 6.38765 60.111 5.95199C60.808 5.51149 61.585 5.29124 62.4418 5.29124C63.0953 5.29124 63.6326 5.40258 64.0537 5.62525C64.4748 5.84308 64.8088 6.10689 65.0557 6.41669C65.3026 6.72166 65.4938 7.00968 65.6293 7.28075H65.7383V1.71884H68.374V16.5893H65.7891V14.8322H65.6293C65.4938 15.1033 65.2978 15.3913 65.0412 15.6962C64.7846 15.9964 64.4458 16.2529 64.0247 16.4659C63.6035 16.6789 63.0735 16.7854 62.4345 16.7854ZM63.1679 14.6289C63.7245 14.6289 64.1989 14.4788 64.591 14.1787C64.9831 13.8737 65.2808 13.4502 65.4841 12.908C65.6874 12.3659 65.7891 11.7342 65.7891 11.0129C65.7891 10.2916 65.6874 9.66477 65.4841 9.1323C65.2857 8.59983 64.9904 8.18595 64.5983 7.89067C64.211 7.59539 63.7342 7.44775 63.1679 7.44775C62.5821 7.44775 62.0932 7.60024 61.7011 7.9052C61.3091 8.21016 61.0138 8.63129 60.8153 9.16861C60.6168 9.70592 60.5176 10.3207 60.5176 11.0129C60.5176 11.71 60.6168 12.332 60.8153 12.879C61.0186 13.4211 61.3163 13.8495 61.7084 14.1642C62.1053 14.474 62.5918 14.6289 63.1679 14.6289Z" stroke="black" stroke-width="2" mask="url(#path-1-outside-1_18_11806)"/>
<path d="M70.9821 5.15389V2.81802H72.1373C72.2682 2.81802 72.3927 2.84756 72.5108 2.90664C72.6311 2.96361 72.7282 3.04907 72.802 3.16302C72.878 3.27696 72.916 3.41728 72.916 3.58398C72.916 3.75068 72.8769 3.89311 72.7989 4.01128C72.7208 4.12733 72.6195 4.21595 72.495 4.27715C72.3726 4.33834 72.2439 4.36894 72.1089 4.36894H71.3017V3.94797H71.9696C72.0519 3.94797 72.1278 3.91738 72.1975 3.85618C72.2671 3.79499 72.3019 3.70426 72.3019 3.58398C72.3019 3.45738 72.2671 3.36875 72.1975 3.31811C72.1278 3.26747 72.0551 3.24215 71.9791 3.24215H71.5581V5.15389H70.9821ZM72.4475 4.06825L72.9983 5.15389H72.3652L71.843 4.06825H72.4475ZM71.8905 6.54655C71.5402 6.54655 71.2121 6.48114 70.9061 6.35032C70.6001 6.21949 70.3311 6.03802 70.099 5.80591C69.8669 5.5738 69.6854 5.30476 69.5546 4.9988C69.4238 4.69284 69.3583 4.36472 69.3583 4.01444C69.3583 3.66417 69.4238 3.33605 69.5546 3.03008C69.6854 2.72412 69.8669 2.45508 70.099 2.22297C70.3311 1.99086 70.6001 1.80939 70.9061 1.67857C71.2121 1.54774 71.5402 1.48233 71.8905 1.48233C72.2407 1.48233 72.5689 1.54774 72.8748 1.67857C73.1808 1.80939 73.4498 1.99086 73.6819 2.22297C73.914 2.45508 74.0955 2.72412 74.2263 3.03008C74.3572 3.33605 74.4226 3.66417 74.4226 4.01444C74.4226 4.36472 74.3572 4.69284 74.2263 4.9988C74.0955 5.30476 73.914 5.5738 73.6819 5.80591C73.4498 6.03802 73.1808 6.21949 72.8748 6.35032C72.5689 6.48114 72.2407 6.54655 71.8905 6.54655ZM71.8905 5.8977C72.2365 5.8977 72.552 5.8133 72.8368 5.64449C73.1217 5.47568 73.3485 5.24885 73.5173 4.96398C73.6883 4.67701 73.7737 4.3605 73.7737 4.01444C73.7737 3.66839 73.6883 3.35293 73.5173 3.06806C73.3485 2.78109 73.1217 2.5532 72.8368 2.38439C72.552 2.21559 72.2365 2.13118 71.8905 2.13118C71.5423 2.13118 71.2258 2.21559 70.9409 2.38439C70.6561 2.5532 70.4282 2.78109 70.2572 3.06806C70.0884 3.35293 70.004 3.66839 70.004 4.01444C70.004 4.3605 70.0884 4.67596 70.2572 4.96082C70.4282 5.24568 70.6561 5.47357 70.9409 5.64449C71.2258 5.8133 71.5423 5.8977 71.8905 5.8977Z" stroke="black" stroke-width="2" mask="url(#path-1-outside-1_18_11806)"/>
</g>
<defs>
<filter id="filter0_d_18_11806" x="0.577393" y="0" width="78.8452" height="25.8727" filterUnits="userSpaceOnUse" color-interpolation-filters="sRGB">
<feFlood flood-opacity="0" result="BackgroundImageFix"/>
<feColorMatrix in="SourceAlpha" type="matrix" values="0 0 0 0 0 0 0 0 0 0 0 0 0 0 0 0 0 0 127 0" result="hardAlpha"/>
<feOffset dy="4"/>
<feGaussianBlur stdDeviation="2"/>
<feComposite in2="hardAlpha" operator="out"/>
<feColorMatrix type="matrix" values="0 0 0 0 0 0 0 0 0 0 0 0 0 0 0 0 0 0 0.25 0"/>
<feBlend mode="normal" in2="BackgroundImageFix" result="effect1_dropShadow_18_11806"/>
<feBlend mode="normal" in="SourceGraphic" in2="effect1_dropShadow_18_11806" result="shape"/>
</filter>
</defs>
</svg>
