<svg width="40" height="40" viewBox="0 0 40 40" fill="none" xmlns="http://www.w3.org/2000/svg">
<path fill-rule="evenodd" clip-rule="evenodd" d="M10 0C4.47715 0 0 4.47715 0 10V30C0 35.5228 4.47715 40 10 40H30C35.5228 40 40 35.5228 40 30V10C40 4.47715 35.5228 0 30 0H10ZM16.1694 16.1387V27.7308H18.9014V16.1387H16.1694ZM16.426 14.0633C16.7379 14.3501 17.1102 14.4935 17.5429 14.4935C17.9807 14.4935 18.353 14.3501 18.6599 14.0633C18.9718 13.7715 19.1278 13.4219 19.1278 13.0143C19.1278 12.6018 18.9718 12.2521 18.6599 11.9653C18.353 11.6735 17.9807 11.5276 17.5429 11.5276C17.1102 11.5276 16.7379 11.6735 16.426 11.9653C16.1141 12.2521 15.9581 12.6018 15.9581 13.0143C15.9581 13.4219 16.1141 13.7715 16.426 14.0633ZM6.62931 26.5406C7.42272 27.334 8.72618 27.7308 10.5397 27.7308H15.3001V25.393H10.5397C9.83128 25.393 9.30707 25.2088 8.96703 24.8405C8.627 24.4579 8.45698 23.8771 8.45698 23.0978V12.8543H5.46045V23.0978C5.46045 24.5996 5.85007 25.7472 6.62931 26.5406ZM25.3073 28.0253C24.5381 28.0253 23.9245 27.8289 23.4663 27.4362C23.0081 27.0271 22.6399 26.3562 22.3617 25.4234L19.4898 16.1941H22.0917L24.7918 25.178C24.89 25.4889 24.9636 25.6934 25.0127 25.7916C25.0782 25.8898 25.1763 25.9389 25.3073 25.9389C25.4218 25.9389 25.5118 25.8898 25.5773 25.7916C25.6591 25.6771 25.7409 25.4725 25.8227 25.178L28.4983 16.1941H31.0756L28.2528 25.4234C27.9746 26.3562 27.6064 27.0271 27.1482 27.4362C26.7064 27.8289 26.0927 28.0253 25.3073 28.0253ZM31.5021 16.1387V27.7308H34.234V16.1387H31.5021ZM31.7587 14.0633C32.0706 14.3501 32.4429 14.4935 32.8756 14.4935C33.3133 14.4935 33.6856 14.3501 33.9925 14.0633C34.3045 13.7715 34.4604 13.4219 34.4604 13.0143C34.4604 12.6018 34.3045 12.2521 33.9925 11.9653C33.6856 11.6735 33.3133 11.5276 32.8756 11.5276C32.4429 11.5276 32.0706 11.6735 31.7587 11.9653C31.4467 12.2521 31.2908 12.6018 31.2908 13.0143C31.2908 13.4219 31.4467 13.7715 31.7587 14.0633Z" fill="white"/>
</svg>
