<svg width="44" height="43" viewBox="0 0 44 43" fill="none" xmlns="http://www.w3.org/2000/svg">
<rect x="0.5" width="43" height="43" rx="10.75" fill="url(#paint0_linear_18_11369)"/>
<path d="M11.83 29.8107C9.88053 29.8107 8.47931 29.3842 7.6264 28.5313C6.78871 27.6784 6.36987 26.4447 6.36987 24.8303V13.8185H9.59115V24.8303C9.59115 25.668 9.77392 26.2924 10.1395 26.7036C10.505 27.0996 11.0685 27.2976 11.83 27.2976H16.9475V29.8107H11.83Z" fill="white"/>
<path d="M17.882 29.8107V17.3493H20.8189V29.8107H17.882ZM19.3585 15.5807C18.8934 15.5807 18.4932 15.4265 18.1578 15.1182C17.8225 14.8045 17.6548 14.4286 17.6548 13.9905C17.6548 13.547 17.8225 13.1711 18.1578 12.8628C18.4932 12.5491 18.8934 12.3923 19.3585 12.3923C19.8291 12.3923 20.2293 12.5491 20.5593 12.8628C20.8946 13.1711 21.0623 13.547 21.0623 13.9905C21.0623 14.4286 20.8946 14.8045 20.5593 15.1182C20.2293 15.4265 19.8291 15.5807 19.3585 15.5807Z" fill="white"/>
<path d="M27.7052 30.1273C26.8784 30.1273 26.2187 29.9162 25.7262 29.494C25.2336 29.0543 24.8378 28.333 24.5388 27.3303L21.4515 17.4088H24.2485L27.1511 27.0664C27.2566 27.4007 27.3358 27.6206 27.3885 27.7261C27.4589 27.8317 27.5645 27.8844 27.7052 27.8844C27.8283 27.8844 27.9251 27.8317 27.9955 27.7261C28.0834 27.603 28.1714 27.3831 28.2593 27.0664L31.1355 17.4088H33.9062L30.8716 27.3303C30.5726 28.333 30.1768 29.0543 29.6842 29.494C29.2093 29.9162 28.5496 30.1273 27.7052 30.1273Z" fill="white"/>
<path d="M34.3646 29.8107V17.3493H37.3015V29.8107H34.3646ZM35.8412 15.5807C35.376 15.5807 34.9758 15.4265 34.6405 15.1182C34.3051 14.8045 34.1375 14.4286 34.1375 13.9905C34.1375 13.547 34.3051 13.1711 34.6405 12.8628C34.9758 12.5491 35.376 12.3923 35.8412 12.3923C36.3117 12.3923 36.7119 12.5491 37.0419 12.8628C37.3772 13.1711 37.5449 13.547 37.5449 13.9905C37.5449 14.4286 37.3772 14.8045 37.0419 15.1182C36.7119 15.4265 36.3117 15.5807 35.8412 15.5807Z" fill="white"/>
<defs>
<linearGradient id="paint0_linear_18_11369" x1="22" y1="43" x2="22" y2="6.4075e-07" gradientUnits="userSpaceOnUse">
<stop offset="0.0791287" stop-color="#444CE7"/>
<stop offset="1" stop-color="#7C82F6"/>
</linearGradient>
</defs>
</svg>
