<svg width="26" height="26" viewBox="0 0 26 26" fill="none" xmlns="http://www.w3.org/2000/svg">
<g clip-path="url(#clip0_385_14280)">
<path d="M21.1367 23.4459C21.1367 24.1405 20.5733 24.704 19.8786 24.704H8.73501C8.04034 24.704 7.47687 24.1405 7.47687 23.4459C7.47687 23.0985 7.61796 22.784 7.84532 22.5562C8.07314 22.3288 8.38768 22.1877 8.73501 22.1877C9.23962 22.1877 9.72715 22.0601 10.1576 21.8273C10.5881 21.5946 10.961 21.2558 11.2369 20.8334L11.7905 19.986L12.3441 20.8334C12.8959 21.6782 13.8368 22.1877 14.846 22.1877H19.8786C20.5733 22.1877 21.1367 22.7512 21.1367 23.4459Z" fill="white" stroke="#17B26A" stroke-width="1.5"/>
<path d="M14.4829 15.3084C14.3553 15.1412 14.1576 15.0432 13.9473 15.0432H9.63369C9.4234 15.0432 9.22569 15.1412 9.09808 15.3084C8.97047 15.4751 8.92823 15.6921 8.9835 15.8947L10.0619 19.8489C10.1419 20.1419 10.4083 20.3454 10.7121 20.3454H12.8689C13.1727 20.3454 13.4391 20.1419 13.5191 19.8489L14.5975 15.8947C14.6528 15.6921 14.6106 15.4751 14.4829 15.3084Z" fill="white" stroke="#17B26A" stroke-width="1.5"/>
<path d="M18.4999 4.5L16.2374 14.7017C16.0743 15.6809 15.2354 16.3913 14.2433 16.3913H9.33739C8.34525 16.3913 7.50634 15.6809 7.34323 14.7017L5.49988 4.5H18.4999Z" fill="white" stroke="#17B26A" stroke-width="1.5"/>
<path d="M18.261 1.69791H5.32006C4.94801 1.69791 4.64606 1.99986 4.64606 2.37191V4.25913C4.64606 4.63118 4.94801 4.93314 5.32006 4.93314H18.261C18.633 4.93314 18.935 4.63118 18.935 4.25913V2.37191C18.935 1.99986 18.633 1.69791 18.261 1.69791Z" fill="white" stroke="#17B26A" stroke-width="1.5"/>
<path d="M9.35046 10.2244H14.2305" stroke="#17B26A" stroke-width="1.5" stroke-linecap="round" stroke-linejoin="round"/>
<path d="M11.7904 7.78439V12.6645" stroke="#17B26A" stroke-width="1.5" stroke-linecap="round" stroke-linejoin="round"/>
</g>
<defs>
<clipPath id="clip0_385_14280">
<rect width="25.0976" height="25.0976" fill="white" transform="translate(0.717468 0.652184)"/>
</clipPath>
</defs>
</svg>
