<svg width="21" height="21" viewBox="0 0 21 21" fill="none" xmlns="http://www.w3.org/2000/svg">
<path d="M13.8 14.9081L15.2 13.5081L11.5 9.80813V5.20813H9.5V10.6081L13.8 14.9081ZM10.5 20.2081C9.11667 20.2081 7.81667 19.9456 6.6 19.4206C5.38333 18.8956 4.325 18.1831 3.425 17.2831C2.525 16.3831 1.8125 15.3248 1.2875 14.1081C0.7625 12.8915 0.5 11.5915 0.5 10.2081C0.5 8.8248 0.7625 7.5248 1.2875 6.30813C1.8125 5.09146 2.525 4.03313 3.425 3.13313C4.325 2.23313 5.38333 1.52063 6.6 0.99563C7.81667 0.47063 9.11667 0.20813 10.5 0.20813C11.8833 0.20813 13.1833 0.47063 14.4 0.99563C15.6167 1.52063 16.675 2.23313 17.575 3.13313C18.475 4.03313 19.1875 5.09146 19.7125 6.30813C20.2375 7.5248 20.5 8.8248 20.5 10.2081C20.5 11.5915 20.2375 12.8915 19.7125 14.1081C19.1875 15.3248 18.475 16.3831 17.575 17.2831C16.675 18.1831 15.6167 18.8956 14.4 19.4206C13.1833 19.9456 11.8833 20.2081 10.5 20.2081Z" fill="#528BFF"/>
</svg>
