<svg width="24" height="24" viewBox="0 0 24 24" fill="none" xmlns="http://www.w3.org/2000/svg">
<path d="M9.11545 23.8749L8.63948 20.0673C8.30454 19.9551 7.96118 19.798 7.60941 19.5961C7.25764 19.3942 6.94313 19.1778 6.66588 18.947L3.13945 20.4374L0.254883 15.4375L3.30535 13.1322C3.2765 12.9463 3.25606 12.7596 3.24404 12.5721C3.23202 12.3846 3.22601 12.1979 3.22601 12.012C3.22601 11.8341 3.23202 11.6534 3.24404 11.4699C3.25606 11.2864 3.2765 11.0857 3.30535 10.8678L0.254883 8.56247L3.13945 3.58656L6.65385 5.06494C6.95514 4.82615 7.27686 4.60779 7.61901 4.40988C7.96117 4.21194 8.29732 4.05288 8.62745 3.93269L9.11545 0.125H14.8846L15.3605 3.94472C15.7355 4.08093 16.0749 4.23998 16.3786 4.42188C16.6823 4.60377 16.9888 4.81813 17.2981 5.06494L20.8606 3.58656L23.7451 8.56247L20.6466 10.9038C20.6915 11.1057 20.7159 11.2944 20.7199 11.4699C20.7239 11.6454 20.7259 11.8221 20.7259 12C20.7259 12.1698 20.7219 12.3425 20.7139 12.518C20.7059 12.6935 20.677 12.8942 20.6274 13.1202L23.7019 15.4375L20.8173 20.4374L17.2981 18.935C16.9888 19.1818 16.6731 19.4002 16.3509 19.5901C16.0288 19.78 15.6987 19.935 15.3605 20.0552L14.8846 23.8749H9.11545ZM12.0144 15.7499C13.0545 15.7499 13.9395 15.385 14.6694 14.655C15.3994 13.925 15.7644 13.04 15.7644 12C15.7644 10.9599 15.3994 10.0749 14.6694 9.34494C13.9395 8.61498 13.0545 8.25 12.0144 8.25C10.9616 8.25 10.0734 8.61498 9.34979 9.34494C8.62625 10.0749 8.26448 10.9599 8.26448 12C8.26448 13.04 8.62625 13.925 9.34979 14.655C10.0734 15.385 10.9616 15.7499 12.0144 15.7499Z" fill="#9198A3"/>
</svg>
