<svg width="20" height="21" viewBox="0 0 20 21" fill="none" xmlns="http://www.w3.org/2000/svg">
<path d="M5.71382 2.39058C5.72401 1.68859 6.256 1.10634 6.95631 1.05667C7.7293 1.00184 8.79323 0.944943 9.92507 0.94012C11.0834 0.935185 12.1963 0.995055 12.998 1.05369C13.6945 1.10463 14.2226 1.68359 14.2347 2.38182L14.524 19.0631C14.5375 19.8396 13.9117 20.4764 13.135 20.4764H6.86104C6.08591 20.4764 5.46071 19.8421 5.47195 19.067L5.71382 2.39058Z" fill="#667085"/>
<rect x="5.21307" y="14.4911" width="9.57385" height="0.694618" fill="#F2F4F7"/>
<path d="M7.62238 18.2446C7.62238 18.8065 8.07785 19.2619 8.63971 19.2619H11.3604C11.9222 19.2619 12.3777 18.8065 12.3777 18.2446C12.3777 18.0717 12.2376 17.9316 12.0647 17.9316H7.9354C7.76252 17.9316 7.62238 18.0717 7.62238 18.2446Z" fill="#F2F4F7"/>
</svg>
