<svg width="26" height="26" viewBox="0 0 26 26" fill="none" xmlns="http://www.w3.org/2000/svg">
<g clip-path="url(#clip0_880_2576)">
<path d="M13.2662 21.8625C9.77714 21.8625 6.7666 21.1719 4.65709 20.067C2.52729 18.9515 1.46741 17.51 1.46741 16.0394V10.8138H25.065V16.0394C25.065 17.51 24.0051 18.9515 21.8753 20.067C19.7658 21.1719 16.7552 21.8625 13.2662 21.8625Z" stroke="#444CE7" stroke-width="1.5"/>
<path d="M13.2662 15.5882C9.76452 15.5882 6.74066 14.9815 4.62158 14.0104C2.45507 13.0175 1.46741 11.7697 1.46741 10.5866C1.46741 9.40356 2.45507 8.15581 4.62158 7.1629C6.74066 6.19172 9.76452 5.58511 13.2662 5.58511C16.7679 5.58511 19.7917 6.19172 21.9108 7.1629C24.0773 8.15581 25.065 9.40356 25.065 10.5866C25.065 11.7697 24.0773 13.0175 21.9108 14.0104C19.7917 14.9815 16.7679 15.5882 13.2662 15.5882Z" stroke="#444CE7" stroke-width="1.5"/>
<path d="M25.815 10.5866C25.815 10.9422 25.7522 11.2977 25.6267 11.6324H0.916096C0.780151 11.2977 0.717407 10.9422 0.717407 10.5866C0.717407 10.2311 0.780151 9.87554 0.916096 9.5409H25.6267C25.7522 9.87554 25.815 10.2311 25.815 10.5866Z" fill="#444CE7"/>
</g>
<defs>
<clipPath id="clip0_880_2576">
<rect width="25.0976" height="25.0976" fill="white" transform="translate(0.717468 0.652171)"/>
</clipPath>
</defs>
</svg>
