<svg width="43" height="43" viewBox="0 0 43 43" fill="none" xmlns="http://www.w3.org/2000/svg">
<rect x="0.211426" y="0.422363" width="42.5773" height="42.5776" rx="9.56434" fill="white"/>
<path d="M14.494 8.04469C14.5106 6.89723 15.3802 5.9455 16.5249 5.86431C17.7884 5.77469 19.5275 5.68169 21.3775 5.67381C23.2709 5.66574 25.09 5.7636 26.4005 5.85944C27.5389 5.9427 28.4021 6.88906 28.4219 8.03037L28.8949 35.297C28.9169 36.5664 27.8939 37.6072 26.6244 37.6072H16.3692C15.1022 37.6072 14.0802 36.5704 14.0986 35.3035L14.494 8.04469Z" fill="#1D35D0"/>
<rect x="13.6755" y="27.8237" width="15.6491" height="1.1354" fill="white"/>
<path d="M17.6135 33.9592C17.6135 34.8776 18.358 35.6221 19.2764 35.6221H23.7235C24.6419 35.6221 25.3865 34.8776 25.3865 33.9592C25.3865 33.6766 25.1574 33.4475 24.8748 33.4475H18.1252C17.8426 33.4475 17.6135 33.6766 17.6135 33.9592Z" fill="white"/>
</svg>
