<svg width="21" height="15" viewBox="0 0 21 15" fill="none" xmlns="http://www.w3.org/2000/svg">
<path d="M10.5 14.3439C9.9181 14.3439 9.42626 14.1431 9.02447 13.7413C8.62268 13.3395 8.42179 12.8476 8.42179 12.2657C8.42179 11.6838 8.62268 11.192 9.02447 10.7902C9.42626 10.3884 9.9181 10.1875 10.5 10.1875C11.0819 10.1875 11.5737 10.3884 11.9755 10.7902C12.3773 11.192 12.5782 11.6838 12.5782 12.2657C12.5782 12.8476 12.3773 13.3395 11.9755 13.7413C11.5737 14.1431 11.0819 14.3439 10.5 14.3439ZM5.80325 9.6472L4.05755 7.85994C4.87498 7.04251 5.83442 6.3948 6.93587 5.91681C8.03732 5.43882 9.22537 5.19983 10.5 5.19983C11.7746 5.19983 12.9627 5.44229 14.0641 5.9272C15.1656 6.41212 16.125 7.07022 16.9424 7.9015L15.1968 9.6472C14.5871 9.03759 13.8806 8.5596 13.077 8.21323C12.2734 7.86686 11.4144 7.69368 10.5 7.69368C9.58559 7.69368 8.7266 7.86686 7.92302 8.21323C7.11945 8.5596 6.41286 9.03759 5.80325 9.6472ZM2.27029 6.11424L0.524597 4.36855C1.79923 3.0662 3.28861 2.04788 4.99275 1.31358C6.69688 0.579278 8.53263 0.212128 10.5 0.212128C12.4674 0.212128 14.3031 0.579278 16.0073 1.31358C17.7114 2.04788 19.2008 3.0662 20.4754 4.36855L18.7297 6.11424C17.6629 5.04743 16.4264 4.21268 15.0201 3.61C13.6138 3.00732 12.1071 2.70598 10.5 2.70598C8.89285 2.70598 7.38615 3.00732 5.9799 3.61C4.57364 4.21268 3.33711 5.04743 2.27029 6.11424Z" fill="#2970FF"/>
</svg>
